%TF.GenerationSoftware,KiCad,Pcbnew,9.0.4*%
%TF.CreationDate,2025-09-30T12:57:06+01:00*%
%TF.ProjectId,RTmFM,52546d46-4d2e-46b6-9963-61645f706362,rev?*%
%TF.SameCoordinates,Original*%
%TF.FileFunction,Soldermask,Top*%
%TF.FilePolarity,Negative*%
%FSLAX46Y46*%
G04 Gerber Fmt 4.6, Leading zero omitted, Abs format (unit mm)*
G04 Created by KiCad (PCBNEW 9.0.4) date 2025-09-30 12:57:06*
%MOMM*%
%LPD*%
G01*
G04 APERTURE LIST*
G04 Aperture macros list*
%AMRoundRect*
0 Rectangle with rounded corners*
0 $1 Rounding radius*
0 $2 $3 $4 $5 $6 $7 $8 $9 X,Y pos of 4 corners*
0 Add a 4 corners polygon primitive as box body*
4,1,4,$2,$3,$4,$5,$6,$7,$8,$9,$2,$3,0*
0 Add four circle primitives for the rounded corners*
1,1,$1+$1,$2,$3*
1,1,$1+$1,$4,$5*
1,1,$1+$1,$6,$7*
1,1,$1+$1,$8,$9*
0 Add four rect primitives between the rounded corners*
20,1,$1+$1,$2,$3,$4,$5,0*
20,1,$1+$1,$4,$5,$6,$7,0*
20,1,$1+$1,$6,$7,$8,$9,0*
20,1,$1+$1,$8,$9,$2,$3,0*%
%AMFreePoly0*
4,1,37,0.603843,0.796157,0.639018,0.796157,0.711114,0.766294,0.766294,0.711114,0.796157,0.639018,0.796157,0.603843,0.800000,0.600000,0.800000,-0.600000,0.796157,-0.603843,0.796157,-0.639018,0.766294,-0.711114,0.711114,-0.766294,0.639018,-0.796157,0.603843,-0.796157,0.600000,-0.800000,0.000000,-0.800000,0.000000,-0.796148,-0.078414,-0.796148,-0.232228,-0.765552,-0.377117,-0.705537,
-0.507515,-0.618408,-0.618408,-0.507515,-0.705537,-0.377117,-0.765552,-0.232228,-0.796148,-0.078414,-0.796148,0.078414,-0.765552,0.232228,-0.705537,0.377117,-0.618408,0.507515,-0.507515,0.618408,-0.377117,0.705537,-0.232228,0.765552,-0.078414,0.796148,0.000000,0.796148,0.000000,0.800000,0.600000,0.800000,0.603843,0.796157,0.603843,0.796157,$1*%
%AMFreePoly1*
4,1,37,0.000000,0.796148,0.078414,0.796148,0.232228,0.765552,0.377117,0.705537,0.507515,0.618408,0.618408,0.507515,0.705537,0.377117,0.765552,0.232228,0.796148,0.078414,0.796148,-0.078414,0.765552,-0.232228,0.705537,-0.377117,0.618408,-0.507515,0.507515,-0.618408,0.377117,-0.705537,0.232228,-0.765552,0.078414,-0.796148,0.000000,-0.796148,0.000000,-0.800000,-0.600000,-0.800000,
-0.603843,-0.796157,-0.639018,-0.796157,-0.711114,-0.766294,-0.766294,-0.711114,-0.796157,-0.639018,-0.796157,-0.603843,-0.800000,-0.600000,-0.800000,0.600000,-0.796157,0.603843,-0.796157,0.639018,-0.766294,0.711114,-0.711114,0.766294,-0.639018,0.796157,-0.603843,0.796157,-0.600000,0.800000,0.000000,0.800000,0.000000,0.796148,0.000000,0.796148,$1*%
G04 Aperture macros list end*
%ADD10C,0.100000*%
%ADD11C,2.000000*%
%ADD12C,1.400000*%
%ADD13O,1.400000X1.400000*%
%ADD14R,1.800000X1.800000*%
%ADD15C,1.800000*%
%ADD16C,2.400000*%
%ADD17O,2.400000X2.400000*%
%ADD18RoundRect,0.250000X-0.550000X0.550000X-0.550000X-0.550000X0.550000X-0.550000X0.550000X0.550000X0*%
%ADD19C,1.600000*%
%ADD20R,0.812800X1.244600*%
%ADD21R,1.498600X1.143000*%
%ADD22R,0.939800X2.489200*%
%ADD23R,1.143000X2.209800*%
%ADD24R,1.168400X1.244600*%
%ADD25C,3.600000*%
%ADD26C,5.600000*%
%ADD27R,1.700000X1.700000*%
%ADD28C,1.700000*%
%ADD29R,2.780000X2.780000*%
%ADD30C,2.780000*%
%ADD31RoundRect,0.200000X0.600000X0.600000X-0.600000X0.600000X-0.600000X-0.600000X0.600000X-0.600000X0*%
%ADD32FreePoly0,180.000000*%
%ADD33FreePoly1,180.000000*%
%ADD34R,1.600000X1.600000*%
%ADD35RoundRect,0.150000X-0.350000X4.350000X-0.350000X-4.350000X0.350000X-4.350000X0.350000X4.350000X0*%
G04 APERTURE END LIST*
%TO.C,J3*%
D10*
X87584000Y-30000000D02*
X132784000Y-30000000D01*
X132784000Y-39000000D01*
X87584000Y-39000000D01*
X87584000Y-30000000D01*
G36*
X87584000Y-30000000D02*
G01*
X132784000Y-30000000D01*
X132784000Y-39000000D01*
X87584000Y-39000000D01*
X87584000Y-30000000D01*
G37*
%TO.C,J4*%
X145423999Y-30000000D02*
X172824001Y-30000000D01*
X172824001Y-39000000D01*
X145423999Y-39000000D01*
X145423999Y-30000000D01*
G36*
X145423999Y-30000000D02*
G01*
X172824001Y-30000000D01*
X172824001Y-39000000D01*
X145423999Y-39000000D01*
X145423999Y-30000000D01*
G37*
%TD*%
D11*
%TO.C,C1*%
X142934000Y-83660000D03*
X142934000Y-88660000D03*
%TD*%
D12*
%TO.C,R12*%
X149284000Y-72230000D03*
D13*
X156904000Y-72230000D03*
%TD*%
D14*
%TO.C,D8*%
X155000000Y-148000000D03*
D15*
X157540000Y-148000000D03*
%TD*%
D16*
%TO.C,R5*%
X33612000Y-88852000D03*
D17*
X59012000Y-88852000D03*
%TD*%
D18*
%TO.C,U2*%
X172144000Y-56995000D03*
D19*
X169604000Y-56995000D03*
X167064000Y-56995000D03*
X164524000Y-56995000D03*
X164524000Y-64615000D03*
X167064000Y-64615000D03*
X169604000Y-64615000D03*
X172144000Y-64615000D03*
%TD*%
D12*
%TO.C,R9*%
X156904000Y-106880000D03*
D13*
X149284000Y-106880000D03*
%TD*%
D18*
%TO.C,R34*%
X108620000Y-57000000D03*
D19*
X106080000Y-57000000D03*
X103540000Y-57000000D03*
X101000000Y-57000000D03*
X98460000Y-57000000D03*
X95920000Y-57000000D03*
X93380000Y-57000000D03*
X93380000Y-64620000D03*
X95920000Y-64620000D03*
X98460000Y-64620000D03*
X101000000Y-64620000D03*
X103540000Y-64620000D03*
X106080000Y-64620000D03*
X108620000Y-64620000D03*
%TD*%
D20*
%TO.C,J5*%
X106585999Y-156885500D03*
X105486001Y-156885500D03*
X104386001Y-156885500D03*
X103286001Y-156885500D03*
X102186000Y-156885500D03*
X101086000Y-156885500D03*
X99986000Y-156885500D03*
X98885999Y-156885500D03*
D21*
X106526000Y-144130501D03*
X98746000Y-144130501D03*
D22*
X110931000Y-156255500D03*
D23*
X96541000Y-156405500D03*
X110831001Y-144925500D03*
D24*
X96946000Y-154255500D03*
X96946000Y-145255500D03*
%TD*%
D25*
%TO.C,H3*%
X35000000Y-155000000D03*
D26*
X35000000Y-155000000D03*
%TD*%
D11*
%TO.C,C3*%
X142934000Y-63340000D03*
X142934000Y-58340000D03*
%TD*%
D27*
%TO.C,J1*%
X114994000Y-56990000D03*
D28*
X117534000Y-56990000D03*
X114994000Y-59530000D03*
X117534000Y-59530000D03*
X114994000Y-62070000D03*
X117534000Y-62070000D03*
X114994000Y-64610000D03*
X117534000Y-64610000D03*
%TD*%
D16*
%TO.C,R26*%
X88984000Y-88829600D03*
D17*
X63584000Y-88829600D03*
%TD*%
D29*
%TO.C,J2*%
X36279000Y-35305000D03*
D30*
X41359000Y-35305000D03*
X46439000Y-35305000D03*
X51519000Y-35305000D03*
%TD*%
D11*
%TO.C,C5*%
X110761000Y-139273000D03*
X105761000Y-139273000D03*
%TD*%
D12*
%TO.C,R6*%
X156904000Y-114500000D03*
D13*
X149284000Y-114500000D03*
%TD*%
D16*
%TO.C,R22*%
X88984000Y-120829600D03*
D17*
X63584000Y-120829600D03*
%TD*%
D27*
%TO.C,J8*%
X164484000Y-96360000D03*
D28*
X164484000Y-98900000D03*
X164484000Y-101440000D03*
X164484000Y-103980000D03*
X164484000Y-106520000D03*
X164484000Y-109060000D03*
X164484000Y-111600000D03*
X164484000Y-114140000D03*
X164484000Y-116680000D03*
X164484000Y-119220000D03*
%TD*%
D16*
%TO.C,R24*%
X88984000Y-104829600D03*
D17*
X63584000Y-104829600D03*
%TD*%
D12*
%TO.C,R33*%
X149371000Y-124660000D03*
X156991000Y-124660000D03*
%TD*%
D25*
%TO.C,H2*%
X175000000Y-45000000D03*
D26*
X175000000Y-45000000D03*
%TD*%
D16*
%TO.C,R25*%
X88984000Y-96829600D03*
D17*
X63584000Y-96829600D03*
%TD*%
D12*
%TO.C,R31*%
X149371000Y-119580000D03*
X156991000Y-119580000D03*
%TD*%
D18*
%TO.C,U1*%
X156904000Y-56995000D03*
D19*
X154364000Y-56995000D03*
X151824000Y-56995000D03*
X149284000Y-56995000D03*
X149284000Y-64615000D03*
X151824000Y-64615000D03*
X154364000Y-64615000D03*
X156904000Y-64615000D03*
%TD*%
D12*
%TO.C,R13*%
X149284000Y-74770000D03*
D13*
X156904000Y-74770000D03*
%TD*%
D16*
%TO.C,R18*%
X33612000Y-128852000D03*
D17*
X59012000Y-128852000D03*
%TD*%
D16*
%TO.C,R21*%
X88984000Y-128829600D03*
D17*
X63584000Y-128829600D03*
%TD*%
D19*
%TO.C,C8*%
X101384000Y-76040000D03*
X97884000Y-76040000D03*
%TD*%
D16*
%TO.C,R4*%
X33612000Y-80852000D03*
D17*
X59012000Y-80852000D03*
%TD*%
D12*
%TO.C,R32*%
X149371000Y-122120000D03*
X156991000Y-122120000D03*
%TD*%
D27*
%TO.C,J6*%
X157525000Y-142850000D03*
D28*
X154985000Y-142850000D03*
%TD*%
D12*
%TO.C,R30*%
X149371000Y-117040000D03*
X156991000Y-117040000D03*
%TD*%
D18*
%TO.C,U9*%
X139124000Y-82395000D03*
D19*
X136584000Y-82395000D03*
X134044000Y-82395000D03*
X131504000Y-82395000D03*
X128964000Y-82395000D03*
X126424000Y-82395000D03*
X123884000Y-82395000D03*
X123884000Y-90015000D03*
X126424000Y-90015000D03*
X128964000Y-90015000D03*
X131504000Y-90015000D03*
X134044000Y-90015000D03*
X136584000Y-90015000D03*
X139124000Y-90015000D03*
%TD*%
D25*
%TO.C,H4*%
X175000000Y-155000000D03*
D26*
X175000000Y-155000000D03*
%TD*%
D16*
%TO.C,R16*%
X33612000Y-112852000D03*
D17*
X59012000Y-112852000D03*
%TD*%
D16*
%TO.C,R17*%
X33612000Y-120852000D03*
D17*
X59012000Y-120852000D03*
%TD*%
D11*
%TO.C,C2*%
X175954000Y-88660000D03*
X175954000Y-83660000D03*
%TD*%
D16*
%TO.C,R2*%
X33612000Y-64852000D03*
D17*
X59012000Y-64852000D03*
%TD*%
D18*
%TO.C,U7*%
X172144000Y-82390000D03*
D19*
X169604000Y-82390000D03*
X167064000Y-82390000D03*
X164524000Y-82390000D03*
X161984000Y-82390000D03*
X159444000Y-82390000D03*
X156904000Y-82390000D03*
X154364000Y-82390000D03*
X151824000Y-82390000D03*
X149284000Y-82390000D03*
X149284000Y-90010000D03*
X151824000Y-90010000D03*
X154364000Y-90010000D03*
X156904000Y-90010000D03*
X159444000Y-90010000D03*
X161984000Y-90010000D03*
X164524000Y-90010000D03*
X167064000Y-90010000D03*
X169604000Y-90010000D03*
X172144000Y-90010000D03*
%TD*%
D11*
%TO.C,C6*%
X160714000Y-63340000D03*
X160714000Y-58340000D03*
%TD*%
D12*
%TO.C,R1*%
X169360000Y-142850000D03*
D13*
X161740000Y-142850000D03*
%TD*%
D16*
%TO.C,R20*%
X88984000Y-136829600D03*
D17*
X63584000Y-136829600D03*
%TD*%
D31*
%TO.C,U8*%
X138361000Y-156483000D03*
D19*
X138361000Y-153943000D03*
D32*
X138361000Y-151403000D03*
D19*
X138361000Y-148863000D03*
X138361000Y-146323000D03*
X138361000Y-143783000D03*
X138361000Y-141243000D03*
D32*
X138361000Y-138703000D03*
D19*
X138361000Y-136163000D03*
X138361000Y-133623000D03*
X138361000Y-131083000D03*
X138361000Y-128543000D03*
D32*
X138361000Y-126003000D03*
D19*
X138361000Y-123463000D03*
X138361000Y-120923000D03*
X138361000Y-118383000D03*
X138361000Y-115843000D03*
D32*
X138361000Y-113303000D03*
D19*
X138361000Y-110763000D03*
X138361000Y-108223000D03*
X120581000Y-108223000D03*
X120581000Y-110763000D03*
D33*
X120581000Y-113303000D03*
D19*
X120581000Y-115843000D03*
X120581000Y-118383000D03*
X120581000Y-120923000D03*
X120581000Y-123463000D03*
D33*
X120581000Y-126003000D03*
D19*
X120581000Y-128543000D03*
X120581000Y-131083000D03*
X120581000Y-133623000D03*
X120581000Y-136163000D03*
D33*
X120581000Y-138703000D03*
D19*
X120581000Y-141243000D03*
X120581000Y-143783000D03*
X120581000Y-146323000D03*
X120581000Y-148863000D03*
D33*
X120581000Y-151403000D03*
D19*
X120581000Y-153943000D03*
X120581000Y-156483000D03*
%TD*%
D12*
%TO.C,R8*%
X156904000Y-109420000D03*
D13*
X149284000Y-109420000D03*
%TD*%
D12*
%TO.C,R11*%
X149284000Y-69690000D03*
D13*
X156904000Y-69690000D03*
%TD*%
D12*
%TO.C,R10*%
X164524000Y-74770000D03*
D13*
X172144000Y-74770000D03*
%TD*%
D16*
%TO.C,R27*%
X88984000Y-80829600D03*
D17*
X63584000Y-80829600D03*
%TD*%
D16*
%TO.C,R29*%
X88984000Y-64829600D03*
D17*
X63584000Y-64829600D03*
%TD*%
D25*
%TO.C,H1*%
X35000000Y-45000000D03*
D26*
X35000000Y-45000000D03*
%TD*%
D18*
%TO.C,U10*%
X139124000Y-56990000D03*
D19*
X136584000Y-56990000D03*
X134044000Y-56990000D03*
X131504000Y-56990000D03*
X128964000Y-56990000D03*
X126424000Y-56990000D03*
X123884000Y-56990000D03*
X123884000Y-64610000D03*
X126424000Y-64610000D03*
X128964000Y-64610000D03*
X131504000Y-64610000D03*
X134044000Y-64610000D03*
X136584000Y-64610000D03*
X139124000Y-64610000D03*
%TD*%
D11*
%TO.C,C7*%
X175954000Y-63260000D03*
X175954000Y-58260000D03*
%TD*%
D16*
%TO.C,R14*%
X33612000Y-96852000D03*
D17*
X59012000Y-96852000D03*
%TD*%
D16*
%TO.C,R3*%
X33612000Y-72852000D03*
D17*
X59012000Y-72852000D03*
%TD*%
D16*
%TO.C,R19*%
X33612000Y-136852000D03*
D17*
X59012000Y-136852000D03*
%TD*%
D16*
%TO.C,R23*%
X88984000Y-112829600D03*
D17*
X63584000Y-112829600D03*
%TD*%
D16*
%TO.C,R15*%
X33612000Y-104852000D03*
D17*
X59012000Y-104852000D03*
%TD*%
D16*
%TO.C,R28*%
X88984000Y-72829600D03*
D17*
X63584000Y-72829600D03*
%TD*%
D34*
%TO.C,C4*%
X109466112Y-133558000D03*
D19*
X106966112Y-133558000D03*
%TD*%
D12*
%TO.C,R7*%
X156904000Y-111960000D03*
D13*
X149284000Y-111960000D03*
%TD*%
D27*
%TO.C,J9*%
X155210000Y-97200000D03*
D28*
X155210000Y-99740000D03*
X152670000Y-97200000D03*
X152670000Y-99740000D03*
X150130000Y-97200000D03*
X150130000Y-99740000D03*
X147590000Y-97200000D03*
X147590000Y-99740000D03*
X145050000Y-97200000D03*
X145050000Y-99740000D03*
X142510000Y-97200000D03*
X142510000Y-99740000D03*
X139970000Y-97200000D03*
X139970000Y-99740000D03*
X137430000Y-97200000D03*
X137430000Y-99740000D03*
X134890000Y-97200000D03*
X134890000Y-99740000D03*
X132350000Y-97200000D03*
X132350000Y-99740000D03*
X129810000Y-97200000D03*
X129810000Y-99740000D03*
X127270000Y-97200000D03*
X127270000Y-99740000D03*
X124730000Y-97200000D03*
X124730000Y-99740000D03*
X122190000Y-97200000D03*
X122190000Y-99740000D03*
X119650000Y-97200000D03*
X119650000Y-99740000D03*
%TD*%
D35*
%TO.C,J3*%
X89880000Y-35500000D03*
X92301000Y-35500000D03*
X95084000Y-35500000D03*
X97500000Y-35500000D03*
X100040000Y-35500000D03*
X102580000Y-35500000D03*
X105120000Y-35500000D03*
X107660000Y-35500000D03*
X110200000Y-35500000D03*
X112740000Y-35500000D03*
X115280000Y-35500000D03*
X117820000Y-35500000D03*
X120360000Y-35500000D03*
X122900000Y-35500000D03*
X125440000Y-35500000D03*
X127982000Y-35500000D03*
X130520000Y-35500000D03*
%TD*%
%TO.C,J4*%
X147720000Y-35500000D03*
X150141000Y-35500000D03*
X152924000Y-35500000D03*
X155340000Y-35500000D03*
X157880000Y-35500000D03*
X160420000Y-35500000D03*
X162960000Y-35500000D03*
X165500000Y-35500000D03*
X168040000Y-35500000D03*
X170580000Y-35500000D03*
%TD*%
M02*
