%TF.GenerationSoftware,KiCad,Pcbnew,9.0.4*%
%TF.CreationDate,2025-09-30T12:57:06+01:00*%
%TF.ProjectId,RTmFM,52546d46-4d2e-46b6-9963-61645f706362,rev?*%
%TF.SameCoordinates,Original*%
%TF.FileFunction,Profile,NP*%
%FSLAX46Y46*%
G04 Gerber Fmt 4.6, Leading zero omitted, Abs format (unit mm)*
G04 Created by KiCad (PCBNEW 9.0.4) date 2025-09-30 12:57:06*
%MOMM*%
%LPD*%
G01*
G04 APERTURE LIST*
%TA.AperFunction,Profile*%
%ADD10C,0.050000*%
%TD*%
G04 APERTURE END LIST*
D10*
X59000000Y-40000000D02*
G75*
G02*
X58000000Y-39000000I0J1000000D01*
G01*
X44850000Y-62841200D02*
X44850000Y-98841200D01*
X78600000Y-61841200D02*
X82100000Y-61841200D01*
X175000000Y-160000000D02*
X35000000Y-160000000D01*
X73600000Y-139841200D02*
X70100000Y-139841200D01*
X180000000Y-155000000D02*
G75*
G02*
X175000000Y-160000000I-5000000J0D01*
G01*
X173824000Y-40000000D02*
X175000000Y-40000000D01*
X77600000Y-98841200D02*
X77600000Y-62841200D01*
X73600000Y-61841200D02*
G75*
G02*
X74600000Y-62841200I0J-1000000D01*
G01*
X82100000Y-101841200D02*
G75*
G02*
X83100000Y-102841200I0J-1000000D01*
G01*
X69100000Y-62841200D02*
G75*
G02*
X70100000Y-61841200I1000000J0D01*
G01*
X180000000Y-45000000D02*
X180000000Y-155000000D01*
X82100000Y-139841200D02*
X78600000Y-139841200D01*
X44850000Y-102841200D02*
X44850000Y-138841200D01*
X47850000Y-138841200D02*
X47850000Y-102841200D01*
X53350000Y-98841200D02*
G75*
G02*
X52350000Y-99841200I-1000000J0D01*
G01*
X83100000Y-98841200D02*
G75*
G02*
X82100000Y-99841200I-1000000J0D01*
G01*
X74600000Y-98841200D02*
G75*
G02*
X73600000Y-99841200I-1000000J0D01*
G01*
X52350000Y-101841200D02*
G75*
G02*
X53350000Y-102841200I0J-1000000D01*
G01*
X77600000Y-138841200D02*
X77600000Y-102841200D01*
X73600000Y-101841200D02*
G75*
G02*
X74600000Y-102841200I0J-1000000D01*
G01*
X30000000Y-31000000D02*
G75*
G02*
X31000000Y-30000000I1000000J0D01*
G01*
X175000000Y-40000000D02*
G75*
G02*
X180000000Y-45000000I0J-5000000D01*
G01*
X74600000Y-102841200D02*
X74600000Y-138841200D01*
X44850000Y-138841200D02*
G75*
G02*
X43850000Y-139841200I-1000000J0D01*
G01*
X53350000Y-102841200D02*
X53350000Y-138841200D01*
X86584000Y-40000000D02*
X59000000Y-40000000D01*
X69100000Y-138841200D02*
X69100000Y-102841200D01*
X40350000Y-61841200D02*
X43850000Y-61841200D01*
X48850000Y-101841200D02*
X52350000Y-101841200D01*
X48850000Y-61841200D02*
X52350000Y-61841200D01*
X43850000Y-99841200D02*
X40350000Y-99841200D01*
X70100000Y-61841200D02*
X73600000Y-61841200D01*
X48850000Y-139841200D02*
G75*
G02*
X47850000Y-138841200I0J1000000D01*
G01*
X70100000Y-139841200D02*
G75*
G02*
X69100000Y-138841200I0J1000000D01*
G01*
X57000000Y-30000000D02*
X31000000Y-30000000D01*
X82100000Y-61841200D02*
G75*
G02*
X83100000Y-62841200I0J-1000000D01*
G01*
X57000000Y-30000000D02*
G75*
G02*
X58000000Y-31000000I0J-1000000D01*
G01*
X78600000Y-101841200D02*
X82100000Y-101841200D01*
X39350000Y-138841200D02*
X39350000Y-102841200D01*
X83100000Y-62841200D02*
X83100000Y-98841200D01*
X69100000Y-98841200D02*
X69100000Y-62841200D01*
X40350000Y-99841200D02*
G75*
G02*
X39350000Y-98841200I0J1000000D01*
G01*
X73600000Y-99841200D02*
X70100000Y-99841200D01*
X53350000Y-138841200D02*
G75*
G02*
X52350000Y-139841200I-1000000J0D01*
G01*
X74600000Y-138841200D02*
G75*
G02*
X73600000Y-139841200I-1000000J0D01*
G01*
X35000000Y-160000000D02*
G75*
G02*
X30000000Y-155000000I0J5000000D01*
G01*
X83100000Y-102841200D02*
X83100000Y-138841200D01*
X44850000Y-98841200D02*
G75*
G02*
X43850000Y-99841200I-1000000J0D01*
G01*
X70100000Y-101841200D02*
X73600000Y-101841200D01*
X52350000Y-61841200D02*
G75*
G02*
X53350000Y-62841200I0J-1000000D01*
G01*
X52350000Y-99841200D02*
X48850000Y-99841200D01*
X48850000Y-99841200D02*
G75*
G02*
X47850000Y-98841200I0J1000000D01*
G01*
X78600000Y-139841200D02*
G75*
G02*
X77600000Y-138841200I0J1000000D01*
G01*
X47850000Y-98841200D02*
X47850000Y-62841200D01*
X47850000Y-62841200D02*
G75*
G02*
X48850000Y-61841200I1000000J0D01*
G01*
X144423999Y-39999999D02*
X133784000Y-40000000D01*
X39350000Y-102841200D02*
G75*
G02*
X40350000Y-101841200I1000000J0D01*
G01*
X39350000Y-62841200D02*
G75*
G02*
X40350000Y-61841200I1000000J0D01*
G01*
X77600000Y-62841200D02*
G75*
G02*
X78600000Y-61841200I1000000J0D01*
G01*
X30000000Y-31000000D02*
X30000000Y-155000000D01*
X82100000Y-99841200D02*
X78600000Y-99841200D01*
X77600000Y-102841200D02*
G75*
G02*
X78600000Y-101841200I1000000J0D01*
G01*
X69100000Y-102841200D02*
G75*
G02*
X70100000Y-101841200I1000000J0D01*
G01*
X74600000Y-62841200D02*
X74600000Y-98841200D01*
X43850000Y-101841200D02*
G75*
G02*
X44850000Y-102841200I0J-1000000D01*
G01*
X70100000Y-99841200D02*
G75*
G02*
X69100000Y-98841200I0J1000000D01*
G01*
X43850000Y-139841200D02*
X40350000Y-139841200D01*
X53350000Y-62841200D02*
X53350000Y-98841200D01*
X83100000Y-138841200D02*
G75*
G02*
X82100000Y-139841200I-1000000J0D01*
G01*
X78600000Y-99841200D02*
G75*
G02*
X77600000Y-98841200I0J1000000D01*
G01*
X40350000Y-139841200D02*
G75*
G02*
X39350000Y-138841200I0J1000000D01*
G01*
X58000000Y-39000000D02*
X58000000Y-31000000D01*
X40350000Y-101841200D02*
X43850000Y-101841200D01*
X43850000Y-61841200D02*
G75*
G02*
X44850000Y-62841200I0J-1000000D01*
G01*
X39350000Y-98841200D02*
X39350000Y-62841200D01*
X52350000Y-139841200D02*
X48850000Y-139841200D01*
X47850000Y-102841200D02*
G75*
G02*
X48850000Y-101841200I1000000J0D01*
G01*
%TO.C,J3*%
X87584000Y-39000000D02*
X87584000Y-31000000D01*
X88584000Y-30000000D02*
X93309000Y-30000000D01*
X93303000Y-39000000D02*
X94065000Y-39000000D01*
X93309000Y-30000000D02*
X93309000Y-37333000D01*
X93309000Y-37333000D02*
X93303000Y-39000000D01*
X94065000Y-39000000D02*
X94071000Y-30000000D01*
X94071000Y-30000000D02*
X131784000Y-30000000D01*
X132784000Y-31000000D02*
X132784000Y-39000000D01*
X87584000Y-31000000D02*
G75*
G02*
X88584000Y-30000000I999999J1D01*
G01*
X87584000Y-39000000D02*
G75*
G02*
X86584000Y-40000000I-999999J-1D01*
G01*
X131784000Y-30000000D02*
G75*
G02*
X132784000Y-31000000I1J-999999D01*
G01*
X133784000Y-40000000D02*
G75*
G02*
X132784000Y-39000000I-1J999999D01*
G01*
%TO.C,J4*%
X145424001Y-39000000D02*
X145424001Y-31000000D01*
X146424001Y-30000001D02*
X151149000Y-30000000D01*
X151142999Y-39000000D02*
X151904999Y-39000000D01*
X151149000Y-30000000D02*
X151149000Y-39000000D01*
X151904999Y-39000000D02*
X151911000Y-30000000D01*
X151911000Y-30000000D02*
X171823998Y-30000000D01*
X172824001Y-31000000D02*
X172824001Y-39000000D01*
X145423999Y-38999999D02*
G75*
G02*
X144423999Y-39999999I-999999J-1D01*
G01*
X145424002Y-31000001D02*
G75*
G02*
X146424002Y-30000001I999999J1D01*
G01*
X171823998Y-30000000D02*
G75*
G02*
X172823998Y-31000000I1J-999999D01*
G01*
X173823999Y-39999999D02*
G75*
G02*
X172823999Y-38999999I-1J999999D01*
G01*
%TD*%
M02*
