M48
; DRILL file {KiCad 9.0.4} date 2025-09-30T12:57:08+0100
; FORMAT={-:-/ absolute / metric / decimal}
; #@! TF.CreationDate,2025-09-30T12:57:08+01:00
; #@! TF.GenerationSoftware,Kicad,Pcbnew,9.0.4
; #@! TF.FileFunction,Plated,1,2,PTH
FMAT,2
METRIC
; #@! TA.AperFunction,Plated,PTH,ViaDrill
T1C0.500
; #@! TA.AperFunction,Plated,PTH,ComponentDrill
T2C0.700
; #@! TA.AperFunction,Plated,PTH,ComponentDrill
T3C0.800
; #@! TA.AperFunction,Plated,PTH,ComponentDrill
T4C0.900
; #@! TA.AperFunction,Plated,PTH,ComponentDrill
T5C1.000
; #@! TA.AperFunction,Plated,PTH,ComponentDrill
T6C1.200
; #@! TA.AperFunction,Plated,PTH,ComponentDrill
T7C1.780
; #@! TA.AperFunction,Plated,PTH,ComponentDrill
T8C3.200
%
G90
G05
T1
X33.6Y-62.34
X33.612Y-58.84
X34.6Y-55.84
X36.85Y-53.59
X37.85Y-38.59
X39.1Y-51.34
X40.1Y-40.84
X41.356Y-49.096
X41.6Y-43.34
X41.6Y-46.34
X51.519Y-38.84
X51.519Y-41.84
X51.519Y-44.84
X53.52Y-46.92
X55.52Y-48.92
X57.52Y-50.92
X59.52Y-52.92
X61.52Y-54.92
X63.52Y-56.92
X65.6Y-58.12
X68.6Y-58.133
X71.6Y-58.133
X74.6Y-58.133
X77.6Y-58.133
X80.6Y-58.133
X83.6Y-58.133
X86.6Y-58.84
X88.6Y-60.84
X98.15Y-54.1
X99.754Y-54.1
X101.3Y-54.15
X103.396Y-155.54
X104.362Y-154.574
X105.65Y-153.287
X109.384Y-46.84
X110.884Y-65.84
X112.695Y-52.828
X115.248Y-52.427
X117.592Y-52.026
X117.788Y-50.132
X117.833Y-118.273
X123.384Y-69.34
X126.384Y-46.84
X126.424Y-52.799
X127.384Y-73.34
X127.461Y-136.323
X127.461Y-142.323
X127.694Y-50.201
X127.884Y-79.34
X130.234Y-51.91
X130.234Y-60.165
X130.884Y-68.34
X133.327Y-141.943
X133.884Y-78.84
X134.098Y-136.101
X134.384Y-46.84
X134.499Y-143.848
X135.1Y-108.2
X135.301Y-146.261
X135.301Y-148.801
X137.4Y-94.9
X138.108Y-73.754
X139.759Y-69.309
X140.648Y-71.595
X142.344Y-138.895
X142.375Y-74.11
X142.461Y-128.323
X142.6Y-77.7
X144.05Y-93.05
X144.331Y-72.224
X144.458Y-73.881
X144.7Y-84.7
X148.25Y-78.8
X149.03Y-88.232
X150.35Y-80.4
X150.5Y-76.3
X151.697Y-72.23
X152.1Y-78.75
X152.5Y-62.1
X152.586Y-69.69
X154.384Y-75.84
X155.384Y-78.84
X156.15Y-59.05
X156.884Y-53.84
X158.884Y-50.34
X160.884Y-43.34
X160.884Y-46.84
X162.384Y-53.84
X162.384Y-86.34
X162.884Y-71.34
X164.384Y-50.34
X165.384Y-43.34
X165.384Y-46.84
X167.384Y-53.84
X168.884Y-86.34
X169.384Y-71.34
X169.884Y-50.34
X170.384Y-43.34
X170.384Y-46.84
X175.384Y-67.34
T2
X149.284Y-69.69
X149.284Y-72.23
X149.284Y-74.77
X149.284Y-106.88
X149.284Y-109.42
X149.284Y-111.96
X149.284Y-114.5
X149.371Y-117.04
X149.371Y-119.58
X149.371Y-122.12
X149.371Y-124.66
X156.904Y-69.69
X156.904Y-72.23
X156.904Y-74.77
X156.904Y-106.88
X156.904Y-109.42
X156.904Y-111.96
X156.904Y-114.5
X156.991Y-117.04
X156.991Y-119.58
X156.991Y-122.12
X156.991Y-124.66
X161.74Y-142.85
X164.524Y-74.77
X169.36Y-142.85
X172.144Y-74.77
T3
X93.38Y-57.0
X93.38Y-64.62
X95.92Y-57.0
X95.92Y-64.62
X97.884Y-76.04
X98.46Y-57.0
X98.46Y-64.62
X101.0Y-57.0
X101.0Y-64.62
X101.384Y-76.04
X103.54Y-57.0
X103.54Y-64.62
X106.08Y-57.0
X106.08Y-64.62
X106.966Y-133.558
X108.62Y-57.0
X108.62Y-64.62
X109.466Y-133.558
X123.884Y-56.99
X123.884Y-64.61
X123.884Y-82.395
X123.884Y-90.015
X126.424Y-56.99
X126.424Y-64.61
X126.424Y-82.395
X126.424Y-90.015
X128.964Y-56.99
X128.964Y-64.61
X128.964Y-82.395
X128.964Y-90.015
X131.504Y-56.99
X131.504Y-64.61
X131.504Y-82.395
X131.504Y-90.015
X134.044Y-56.99
X134.044Y-64.61
X134.044Y-82.395
X134.044Y-90.015
X136.584Y-56.99
X136.584Y-64.61
X136.584Y-82.395
X136.584Y-90.015
X139.124Y-56.99
X139.124Y-64.61
X139.124Y-82.395
X139.124Y-90.015
X149.284Y-56.995
X149.284Y-64.615
X149.284Y-82.39
X149.284Y-90.01
X151.824Y-56.995
X151.824Y-64.615
X151.824Y-82.39
X151.824Y-90.01
X154.364Y-56.995
X154.364Y-64.615
X154.364Y-82.39
X154.364Y-90.01
X156.904Y-56.995
X156.904Y-64.615
X156.904Y-82.39
X156.904Y-90.01
X159.444Y-82.39
X159.444Y-90.01
X161.984Y-82.39
X161.984Y-90.01
X164.524Y-56.995
X164.524Y-64.615
X164.524Y-82.39
X164.524Y-90.01
X167.064Y-56.995
X167.064Y-64.615
X167.064Y-82.39
X167.064Y-90.01
X169.604Y-56.995
X169.604Y-64.615
X169.604Y-82.39
X169.604Y-90.01
X172.144Y-56.995
X172.144Y-64.615
X172.144Y-82.39
X172.144Y-90.01
T4
X155.0Y-148.0
X157.54Y-148.0
T5
X105.761Y-139.273
X110.761Y-139.273
X114.994Y-56.99
X114.994Y-59.53
X114.994Y-62.07
X114.994Y-64.61
X117.534Y-56.99
X117.534Y-59.53
X117.534Y-62.07
X117.534Y-64.61
X119.65Y-97.2
X119.65Y-99.74
X120.581Y-108.223
X120.581Y-110.763
X120.581Y-113.303
X120.581Y-115.843
X120.581Y-118.383
X120.581Y-120.923
X120.581Y-123.463
X120.581Y-126.003
X120.581Y-128.543
X120.581Y-131.083
X120.581Y-133.623
X120.581Y-136.163
X120.581Y-138.703
X120.581Y-141.243
X120.581Y-143.783
X120.581Y-146.323
X120.581Y-148.863
X120.581Y-151.403
X120.581Y-153.943
X120.581Y-156.483
X122.19Y-97.2
X122.19Y-99.74
X124.73Y-97.2
X124.73Y-99.74
X127.27Y-97.2
X127.27Y-99.74
X129.81Y-97.2
X129.81Y-99.74
X132.35Y-97.2
X132.35Y-99.74
X134.89Y-97.2
X134.89Y-99.74
X137.43Y-97.2
X137.43Y-99.74
X138.361Y-108.223
X138.361Y-110.763
X138.361Y-113.303
X138.361Y-115.843
X138.361Y-118.383
X138.361Y-120.923
X138.361Y-123.463
X138.361Y-126.003
X138.361Y-128.543
X138.361Y-131.083
X138.361Y-133.623
X138.361Y-136.163
X138.361Y-138.703
X138.361Y-141.243
X138.361Y-143.783
X138.361Y-146.323
X138.361Y-148.863
X138.361Y-151.403
X138.361Y-153.943
X138.361Y-156.483
X139.97Y-97.2
X139.97Y-99.74
X142.51Y-97.2
X142.51Y-99.74
X142.934Y-58.34
X142.934Y-63.34
X142.934Y-83.66
X142.934Y-88.66
X145.05Y-97.2
X145.05Y-99.74
X147.59Y-97.2
X147.59Y-99.74
X150.13Y-97.2
X150.13Y-99.74
X152.67Y-97.2
X152.67Y-99.74
X154.985Y-142.85
X155.21Y-97.2
X155.21Y-99.74
X157.525Y-142.85
X160.714Y-58.34
X160.714Y-63.34
X164.484Y-96.36
X164.484Y-98.9
X164.484Y-101.44
X164.484Y-103.98
X164.484Y-106.52
X164.484Y-109.06
X164.484Y-111.6
X164.484Y-114.14
X164.484Y-116.68
X164.484Y-119.22
X175.954Y-58.26
X175.954Y-63.26
X175.954Y-83.66
X175.954Y-88.66
T6
X33.612Y-64.852
X33.612Y-72.852
X33.612Y-80.852
X33.612Y-88.852
X33.612Y-96.852
X33.612Y-104.852
X33.612Y-112.852
X33.612Y-120.852
X33.612Y-128.852
X33.612Y-136.852
X59.012Y-64.852
X59.012Y-72.852
X59.012Y-80.852
X59.012Y-88.852
X59.012Y-96.852
X59.012Y-104.852
X59.012Y-112.852
X59.012Y-120.852
X59.012Y-128.852
X59.012Y-136.852
X63.584Y-64.83
X63.584Y-72.83
X63.584Y-80.83
X63.584Y-88.83
X63.584Y-96.83
X63.584Y-104.83
X63.584Y-112.83
X63.584Y-120.83
X63.584Y-128.83
X63.584Y-136.83
X88.984Y-64.83
X88.984Y-72.83
X88.984Y-80.83
X88.984Y-88.83
X88.984Y-96.83
X88.984Y-104.83
X88.984Y-112.83
X88.984Y-120.83
X88.984Y-128.83
X88.984Y-136.83
T7
X36.279Y-35.305
X41.359Y-35.305
X46.439Y-35.305
X51.519Y-35.305
T8
X35.0Y-45.0
X35.0Y-155.0
X175.0Y-45.0
X175.0Y-155.0
M30
